<svg xmlns="http://www.w3.org/2000/svg" viewBox="0 0 128 128" fill="none">
  <defs>
    <linearGradient id="bg" x1="16" y1="12" x2="112" y2="116" gradientUnits="userSpaceOnUse">
      <stop offset="0" stop-color="#061120"/>
      <stop offset="0.52" stop-color="#0b1b31"/>
      <stop offset="1" stop-color="#160d29"/>
    </linearGradient>
    <linearGradient id="stroke" x1="31" y1="24" x2="96" y2="102" gradientUnits="userSpaceOnUse">
      <stop offset="0" stop-color="#66e5ff"/>
      <stop offset="0.55" stop-color="#38bdf8"/>
      <stop offset="1" stop-color="#9d7bff"/>
    </linearGradient>
    <radialGradient id="glow" cx="0" cy="0" r="1" gradientUnits="userSpaceOnUse" gradientTransform="translate(64 69) rotate(90) scale(35)">
      <stop offset="0" stop-color="#6ee7ff" stop-opacity="0.95"/>
      <stop offset="0.45" stop-color="#38bdf8" stop-opacity="0.35"/>
      <stop offset="1" stop-color="#38bdf8" stop-opacity="0"/>
    </radialGradient>
    <filter id="shadow" x="8" y="8" width="112" height="112" filterUnits="userSpaceOnUse" color-interpolation-filters="sRGB">
      <feFlood flood-opacity="0" result="BackgroundImageFix"/>
      <feGaussianBlur in="SourceAlpha" stdDeviation="8"/>
      <feOffset dy="6"/>
      <feColorMatrix type="matrix" values="0 0 0 0 0.0235 0 0 0 0 0.1373 0 0 0 0 0.2471 0 0 0 0.42 0"/>
      <feBlend in2="BackgroundImageFix" result="effect1_dropShadow_0_1"/>
      <feBlend in="SourceGraphic" in2="effect1_dropShadow_0_1" result="shape"/>
    </filter>
  </defs>
  <g filter="url(#shadow)">
    <rect x="16" y="16" width="96" height="96" rx="28" fill="url(#bg)"/>
    <rect x="17" y="17" width="94" height="94" rx="27" stroke="rgba(124,220,255,0.18)"/>
  </g>
  <path d="M64 27c-10.2 9.1-22.6 14.1-33.4 16.7v18.1c0 20.2 12.2 36.2 33.4 43.2 21.2-7 33.4-23 33.4-43.2V43.7C86.6 41.1 74.2 36.1 64 27Z" stroke="url(#stroke)" stroke-width="4.5" stroke-linejoin="round"/>
  <path d="M64 36v56" stroke="url(#stroke)" stroke-width="3.5" stroke-linecap="round"/>
  <path d="M58 45H49V55H42" stroke="#69e4ff" stroke-width="3.2" stroke-linecap="round" stroke-linejoin="round"/>
  <path d="M58 63H48V74H54" stroke="#69e4ff" stroke-width="3.2" stroke-linecap="round" stroke-linejoin="round"/>
  <path d="M58 81H50" stroke="#69e4ff" stroke-width="3.2" stroke-linecap="round"/>
  <circle cx="49" cy="45" r="4.3" fill="#9ef3ff"/>
  <circle cx="42" cy="55" r="3.6" fill="#9ef3ff"/>
  <circle cx="48" cy="63" r="3.6" fill="#9ef3ff"/>
  <circle cx="54" cy="74" r="3.9" fill="#9ef3ff"/>
  <path d="M71 46c6-3.5 13 .2 13 7.2 0 3.8-1.8 6.1-4.8 7.7" stroke="#9d7bff" stroke-width="3.2" stroke-linecap="round" stroke-linejoin="round"/>
  <path d="M70 59c8-2.7 15 2.3 15 9.5 0 4.5-2.5 7.4-6.5 9.1" stroke="#9d7bff" stroke-width="3.2" stroke-linecap="round" stroke-linejoin="round"/>
  <path d="M69 73c6.8-1.2 12 2.7 12 8.3 0 4-2.5 6.4-5.8 7.6" stroke="#9d7bff" stroke-width="3.2" stroke-linecap="round" stroke-linejoin="round"/>
  <circle cx="64" cy="69" r="18" fill="url(#glow)"/>
  <circle cx="64" cy="69" r="8.5" fill="#d9fbff" fill-opacity="0.9"/>
  <circle cx="64" cy="69" r="5.5" fill="#38bdf8"/>
</svg>